<svg xmlns="http://www.w3.org/2000/svg" xmlns:xlink="http://www.w3.org/1999/xlink" fill="#791917" xml:space="preserve" version="1.1" style="shape-rendering:geometricPrecision;text-rendering:geometricPrecision;image-rendering:optimizeQuality;" x="0px" y="0px" fill-rule="evenodd" clip-rule="evenodd" viewBox="2.63 2.63 94.74 94.74"><g><path class="fil0" d="M50 24.89c-13.88,0 -25.11,11.23 -25.11,25.11 0,13.88 11.23,25.11 25.11,25.11 13.88,0 25.11,-11.23 25.11,-25.11 0,-13.88 -11.23,-25.11 -25.11,-25.11zm-41.04 48.75c18.54,-1.01 18.03,-0.98 17.32,17.36 16.04,-10.48 15.5,-9.14 23.67,6.37 8.66,-17.06 8.85,-15.7 23.69,-6.33 -1.04,-19.12 -0.18,-18 17.36,-17.32 -10.48,-16.04 -9.14,-15.5 6.37,-23.67 -17.06,-8.66 -15.7,-8.85 -6.33,-23.69 -19.12,1.04 -18,0.18 -17.32,-17.36 -15.42,10.07 -15.14,9.8 -23.67,-6.37 -8.33,16.4 -8.21,16.1 -23.69,6.33 1,18.38 0.93,18.03 -17.36,17.32 10.48,16.04 9.14,15.5 -6.37,23.67 16.55,8.4 16.13,8.17 6.33,23.69zm41.04 -53.79c16.63,0 30.15,13.52 30.15,30.15 0,16.63 -13.52,30.15 -30.15,30.15 -16.63,0 -30.15,-13.52 -30.15,-30.15 0,-16.63 13.52,-30.15 30.15,-30.15z"/></g></svg>